<svg version="1.1" id="Layer_1" xmlns="http://www.w3.org/2000/svg" xmlns:xlink="http://www.w3.org/1999/xlink" x="0px" y="0px" viewBox="0 0 1399.9 363.6" style="enable-background:new 0 0 1399.9 363.6;" xml:space="preserve">
<style type="text/css">
	.st0{fill:#05B5F5;}
	.st1{fill:#FFFFFF;}
</style>
<g id="XMLID_1_">
	<path id="XMLID_23_" class="st1" d="M732.5,75.3C680.7,63.6,629.7,90,611.7,137.8c-18.2,48.4,2.7,104.8,48.2,130.4
		c43.7,24.6,107.7,13.4,136.9-24.4c-7.7-9-15.4-18.2-23-27.2c-54.6,41.2-114.7,28.8-125-27.4c54.9,0,108.4,0,161.7,0
		C814.3,135.2,780,86,732.5,75.3z M650.3,156.8c-1.1-24.4,23.5-46.9,53.2-48.7c32-1.9,60.1,19.7,62.7,48.7
		C727.6,156.8,689,156.8,650.3,156.8z"></path>
	<path id="XMLID_20_" class="st1" d="M941.2,72.2C883.7,72.4,837,119.1,837,176.5c-0.1,58.4,46.6,105.1,104.9,105
		c57.3-0.1,104.6-47.2,104.6-104.2C1046.5,119.4,999.1,72.1,941.2,72.2z M942.2,240.5c-35.7,0.4-65.8-29-65.5-63.9
		c0.3-34.6,29.5-63.2,64.7-63.3c35.7-0.1,63.8,27.7,64.1,63.1C1005.8,211.9,977.9,240.1,942.2,240.5z"></path>
	<path id="XMLID_19_" class="st1" d="M349.9,208.3c-19.1-46.1-36.9-89.4-54.7-132.5c-14.3,0-27.8,0-43,0c2,5.3,3.4,9.7,5.1,13.9
		c21.9,53.5,43.6,107,66,160.3c4.1,9.7,3.2,17.6-1.2,26.7c-12.4,25.6-32.1,42.6-60,51c4.5,12.3,8.6,23.6,13.2,36
		c44.2-12.3,71.3-40.4,87.6-80.1c21.2-51.7,85.4-208.3,85.4-208.3L403.4,75C403.4,75,366.6,167.2,349.9,208.3z"></path>
	<path id="XMLID_15_" class="st1" d="M516.9,11.2c-14,0-26.5,0-39.6,0c0,69.3-1,137.7,0.5,206c0.6,25.4,14.7,45.4,39.4,55.8
		c21.6,9.1,44.1,5.7,66.1,5.5c0-14.2,0-40.4,0-40.4l-36.1-0.4c-16-1.5-27.5-10.3-28.2-26.3c-1.4-32.8-0.4-65.7-0.4-99.9
		c21.5,0,42.6,0,65,0c0-13.2,0-24.2,0-36.9c-22.3,0-43.7,0-66.6,0C516.9,52.4,516.9,31.9,516.9,11.2z"></path>
	<path id="XMLID_7_" class="st1" d="M1364.3,237.6c-16.8-1-27.1-10.2-29.3-26.9c-1.5-11.1-1.1-22.6-1.2-33.8c-0.2-21.5,0-43.1,0-66.3
		c23.5,0,45,0,66,0c0-12.8,0-23.8,0-35.9c-22.2,0-43.3,0-65.9,0c0-21.6,0-63.7,0-63.7h-40.3c0,0-0.4,137.5,0.2,202.6
		c0.3,31.8,21.1,57.1,52.6,62.8c17.3,3.1,35.3,2.3,53.7,3.3c0-14.9,0-27.4,0-41.9C1387.6,237.7,1375.9,238.3,1364.3,237.6z"></path>
	<path id="XMLID_5_" class="st1" d="M1252.1,75.9c-13.8,0-40.1,0-40.1,0s0.3,105.5-1.9,126.6c-2.3,21.9-20.3,37.1-41.6,38.5
		c-1.1,0.1-5.7,0.1-6.9,0c-21.3-1.4-39.3-16.6-41.6-38.5c-2.2-21-1.9-126.6-1.9-126.6s-26.3,0-40.1,0c0,41.2-0.2,80.5,0,120.1
		c0.2,41.5,23.5,85.8,87,85.8c63.5,0,86.8-44.2,87-85.8C1252.3,156.4,1252.1,117.1,1252.1,75.9z"></path>
	<path id="XMLID_3_" class="st0" d="M136.7,72.2c-14.6,0-28.2,3.4-40.8,8.8l-0.1,47.5c11.2-9.4,25.5-15.1,41.1-15.2
		c11.7,0,22.4,3.2,31.8,8.4L151.5,139l-48.4,48.4c2.6,6.1,6.6,11.6,12.1,16.1c1.9,1.6,4,3,6.1,4.2l51.1-51.1l16.7-16.7
		c7.4,10.3,11.8,22.9,11.9,36.7c0.3,35.4-27.6,63.6-63.3,64c-15.7,0.2-30.2-5.5-41.6-14.9c-12.2-10-20.7-24.1-23-40v-17V94.1V0
		c-2.8,0-5.4,0-8.2,0C54,0,43,0,32.5,0L0,0v36.9h32.5v139.7c0,13.1,2.4,25.6,6.7,37.1c14.9,39.8,53,68,98.1,67.9
		c57.3-0.1,104.6-47.2,104.6-104.2C242.1,119.4,194.6,72.1,136.7,72.2z"></path>
</g>
</svg>