<svg class="logo-text-dark" width="2113px" height="230px" viewBox="0 0 2113 230" version="1.1" xmlns="http://www.w3.org/2000/svg" xmlns:xlink="http://www.w3.org/1999/xlink">
    <!-- Generator: Sketch 49.2 (51160) - http://www.bohemiancoding.com/sketch -->
    <desc>Created with Sketch.</desc>
    <defs></defs>
    <g id="Logo" stroke="none" stroke-width="1" fill="none" fill-rule="evenodd">
        <g id="Artboard-3-Copy-2" transform="translate(-3268.000000, -1765.000000)">
            <g id="Group-5" transform="translate(3268.000000, 1765.000000)">
                <g id="Group">
                    <g id="Page-1">
                        <g id="Group-16">
                            <g id="Group-3" transform="translate(0.184089, 0.337295)">
                                <g id="Group-6">
                                    <g id="Group-4-Copy">
                                        <g id="Group-2" fill="#FFFFFF">
                                            <path d="M17.1056223,155.672355 C5.70181709,144.286978 -9.9952925e-16,129.179686 0,110.350024 C-9.9952925e-16,91.5203622 5.70181709,76.4130695 17.1056223,65.0276927 C28.5094276,53.6423158 43.2891377,47.9497128 61.445196,47.9497128 C76.6002529,47.9497128 89.2792936,51.5258352 99.4826983,58.6781873 C109.686103,65.8305394 116.513279,75.97505 119.96443,89.1120233 L85.7531856,89.1120233 C81.7018337,79.0403437 73.5992516,74.0045795 61.445196,74.0045795 C52.2921418,74.0045795 45.1273585,77.2522825 39.9506311,83.747786 C34.7739037,90.2432895 32.1855789,99.1106134 32.1855789,110.350024 C32.1855789,121.589434 34.7739037,130.456758 39.9506311,136.952262 C45.1273585,143.447765 52.2921418,146.695468 61.445196,146.695468 C73.4492015,146.695468 81.5517837,141.586722 85.7531856,131.369076 L119.96443,131.369076 C116.363229,144.06815 109.423517,154.139679 99.1450873,161.583964 C88.8666576,169.028248 76.3001528,172.750335 61.445196,172.750335 C43.2891377,172.750335 28.5094276,167.057732 17.1056223,155.672355 Z M175.557703,49.7013004 L175.557703,71.1582495 C183.960507,55.6858143 196.11438,47.9497128 212.019687,47.9497128 L212.019687,79.478291 L204.142098,79.478291 C194.688944,79.478291 187.561672,81.7772269 182.76007,86.3751675 C177.958468,90.9731082 175.557703,98.891665 175.557703,110.131075 L175.557703,170.998747 L143.822272,170.998747 L143.822272,49.7013004 L175.557703,49.7013004 Z M268.063108,168.809263 L219.222055,49.7013004 L254.783743,49.7013004 L286.519174,135.966994 L320.055197,49.7013004 L353.141071,49.7013004 L275.265475,228.363244 L242.1796,228.363244 L268.063108,168.809263 Z M459.150915,136.404891 C465.753118,129.98237 469.05417,121.22452 469.05417,110.131075 C469.05417,99.0376313 465.79063,90.3527626 459.263452,84.0762087 C452.736274,77.7996548 445.046323,74.6614249 436.193369,74.6614249 C427.340415,74.6614249 419.650465,77.8361458 413.123287,84.1856829 C406.596109,90.53522 403.332569,99.2565798 403.332569,110.350024 C403.332569,121.443468 406.596109,130.164828 413.123287,136.514365 C419.650465,142.863902 427.340415,146.038623 436.193369,146.038623 C445.046323,146.038623 452.698762,142.827411 459.150915,136.404891 Z M403.332569,68.530868 C412.185523,54.8100292 425.164659,47.9497128 442.270367,47.9497128 C459.376075,47.9497128 473.480569,53.7517889 484.584275,65.3561153 C495.68798,76.9604418 501.239749,91.9217703 501.239749,110.24055 C501.239749,128.559329 495.68798,143.557149 484.584275,155.234458 C473.480569,166.911768 459.48861,172.750335 442.607978,172.750335 C425.727345,172.750335 412.635673,165.379144 403.332569,150.636541 L403.332569,228.801141 L371.597138,228.801141 L371.597138,49.7013004 L403.332569,49.7013004 L403.332569,68.530868 Z M574.613866,145.162829 L589.693822,145.162829 L589.693822,170.998747 L569.662238,170.998747 C556.907982,170.998747 547.07985,168.152446 540.177547,162.459757 C533.275244,156.767069 529.824144,147.352379 529.824144,134.215406 L529.824144,74.8803734 L516.544779,74.8803734 L516.544779,49.7013004 L529.824144,49.7013004 L529.824144,19.7053614 L561.559575,19.7053614 L561.559575,49.7013004 L589.468748,49.7013004 L589.468748,74.8803734 L561.559575,74.8803734 L561.559575,134.215406 C561.559575,138.156498 562.534886,140.966309 564.485537,142.644922 C566.436188,144.323535 569.812264,145.162829 574.613866,145.162829 Z M669.820158,146.695468 C678.673113,146.695468 686.288039,143.520747 692.665167,137.17121 C699.042295,130.821673 702.230811,121.844876 702.230811,110.24055 C702.230811,98.6362233 699.079807,89.6959172 692.777704,83.4193633 C686.475601,77.1428094 678.860675,74.0045795 669.932695,74.0045795 C661.004716,74.0045795 653.464813,77.1428094 647.312761,83.4193633 C641.160708,89.6959172 638.084728,98.6727143 638.084728,110.350024 C638.084728,122.027333 641.160708,131.004131 647.312761,137.280685 C653.464813,143.557238 660.967204,146.695468 669.820158,146.695468 Z M624.130141,155.453407 C611.976085,143.922063 605.899149,128.814771 605.899149,110.131075 C605.899149,91.4473801 612.051109,76.4130695 624.355215,65.0276927 C636.659321,53.6423158 651.926686,47.9497128 670.157769,47.9497128 C688.388853,47.9497128 703.656218,53.6423158 715.960324,65.0276927 C728.26443,76.4130695 734.41639,91.4473801 734.41639,110.131075 C734.41639,128.814771 728.226918,143.922063 715.847787,155.453407 C703.468656,166.98475 688.126267,172.750335 669.820158,172.750335 C651.51405,172.750335 636.284197,166.98475 624.130141,155.453407 Z M791.360107,49.7013004 L791.360107,67.8740226 C799.31276,54.591083 812.216873,47.9497128 830.072831,47.9497128 C839.525985,47.9497128 847.966175,50.0661934 855.393653,54.2992181 C862.821132,58.5322428 868.560461,64.5897563 872.611813,72.4719403 C876.963265,64.8816891 882.927665,58.8971577 890.505194,54.5181666 C898.082722,50.1391755 906.597936,47.9497128 916.05109,47.9497128 C930.906047,47.9497128 942.872361,52.4746024 951.95039,61.5245173 C961.028419,70.5744322 965.567366,83.2733159 965.567366,99.6215494 L965.567366,170.998747 L934.057009,170.998747 L934.057009,104.000519 C934.057009,94.5127045 931.58122,87.2509865 926.629567,82.2151468 C921.677915,77.179307 914.925763,74.6614249 906.372909,74.6614249 C897.820055,74.6614249 891.030392,77.179307 886.003714,82.2151468 C880.977037,87.2509865 878.463736,94.5127045 878.463736,104.000519 L878.463736,170.998747 L846.953379,170.998747 L846.953379,104.000519 C846.953379,94.5127045 844.47759,87.2509865 839.525938,82.2151468 C834.574286,77.179307 827.822134,74.6614249 819.26928,74.6614249 C810.716426,74.6614249 803.926762,77.179307 798.900085,82.2151468 C793.873408,87.2509865 791.360107,94.5127045 791.360107,104.000519 L791.360107,170.998747 L759.624676,170.998747 L759.624676,49.7013004 L791.360107,49.7013004 Z M1033.31463,18.8295676 C1033.31463,24.0843569 1031.43904,28.5362644 1027.68778,32.1854236 C1023.93653,35.8345829 1019.39759,37.6591351 1014.07081,37.6591351 C1008.74403,37.6591351 1004.20508,35.8345829 1000.45383,32.1854236 C996.70258,28.5362644 994.826983,24.0843569 994.826983,18.8295676 C994.826983,13.5747783 996.70258,9.12287075 1000.45383,5.4737115 C1004.20508,1.82455226 1008.74403,0 1014.07081,0 C1019.39759,0 1023.93653,1.82455226 1027.68778,5.4737115 C1031.43904,9.12287075 1033.31463,13.5747783 1033.31463,18.8295676 Z M998.203092,170.998747 L998.203092,49.7013004 L1029.93852,49.7013004 L1029.93852,170.998747 L998.203092,170.998747 Z M1095.43505,49.7013004 L1095.43505,67.8740226 C1103.3877,54.591083 1116.29182,47.9497128 1134.14778,47.9497128 C1148.40253,47.9497128 1160.03124,52.5110934 1169.03424,61.6339915 C1178.03725,70.7568896 1182.53868,83.4192823 1182.53868,99.6215494 L1182.53868,170.998747 L1151.02832,170.998747 L1151.02832,104.000519 C1151.02832,94.5127045 1148.55253,87.2509865 1143.60088,82.2151468 C1138.64923,77.179307 1131.89708,74.6614249 1123.34422,74.6614249 C1114.79137,74.6614249 1108.00171,77.179307 1102.97503,82.2151468 C1097.94835,87.2509865 1095.43505,94.5127045 1095.43505,104.000519 L1095.43505,170.998747 L1063.69962,170.998747 L1063.69962,49.7013004 L1095.43505,49.7013004 Z M1267.84172,172.750335 C1249.68566,172.750335 1234.90595,167.021241 1223.50214,155.562881 C1212.09834,144.104521 1206.39652,128.960737 1206.39652,110.131075 C1206.39652,91.3014137 1212.13585,76.2306121 1223.61468,64.9182184 C1235.09351,53.6058248 1249.94825,47.9497128 1268.17933,47.9497128 C1286.41041,47.9497128 1301.37768,53.4598606 1313.08159,64.4803215 C1324.78549,75.5007824 1330.63736,90.2066736 1330.63736,108.598436 C1330.63736,112.831461 1330.33726,116.772494 1329.73706,120.421653 L1238.80717,120.421653 C1239.55743,128.303837 1242.55838,134.653279 1247.81013,139.470169 C1253.06189,144.287059 1259.73901,146.695468 1267.84172,146.695468 C1278.79537,146.695468 1286.89796,142.316543 1292.14971,133.558561 L1326.36095,133.558561 C1322.75975,145.089904 1315.78253,154.504594 1305.42907,161.802912 C1295.07562,169.101231 1282.54662,172.750335 1267.84172,172.750335 Z M1297.77656,100.497343 C1297.32641,92.4691929 1294.28794,86.0467689 1288.66106,81.2298787 C1283.03418,76.4129885 1276.24452,74.0045795 1268.29187,74.0045795 C1260.33921,74.0045795 1253.6996,76.4129885 1248.37282,81.2298787 C1243.04604,86.0467689 1239.85753,92.4691929 1238.80717,100.497343 L1297.77656,100.497343 Z M1387.356,49.7013004 L1387.356,71.1582495 C1395.7588,55.6858143 1407.91268,47.9497128 1423.81798,47.9497128 L1423.81798,79.478291 L1415.9404,79.478291 C1406.48724,79.478291 1399.35997,81.7772269 1394.55837,86.3751675 C1389.75677,90.9731082 1387.356,98.891665 1387.356,110.131075 L1387.356,170.998747 L1355.62057,170.998747 L1355.62057,49.7013004 L1387.356,49.7013004 Z M1475.13485,153.482871 C1475.13485,158.445727 1473.37179,162.605706 1469.84561,165.962933 C1466.31944,169.320159 1462.04307,170.998747 1457.0164,170.998747 C1451.98972,170.998747 1447.75087,169.320159 1444.29972,165.962933 C1440.84857,162.605706 1439.12302,158.445727 1439.12302,153.482871 C1439.12302,148.520014 1440.84857,144.360035 1444.29972,141.002808 C1447.75087,137.645582 1451.98972,135.966994 1457.0164,135.966994 C1462.04307,135.966994 1466.31944,137.645582 1469.84561,141.002808 C1473.37179,144.360035 1475.13485,148.520014 1475.13485,153.482871 Z" id="cryptominer.deals"></path>
                                        </g>
                                        <path d="M1509.3461,155.234458 C1498.24239,143.411182 1492.69062,128.376872 1492.69062,110.131075 C1492.69062,91.8852792 1498.24239,76.9604418 1509.3461,65.3561153 C1520.4498,53.7517889 1534.5543,47.9497128 1551.66,47.9497128 C1568.76571,47.9497128 1581.81987,54.8100292 1590.82288,68.530868 L1590.82288,8.97688687 L1622.33323,8.97688687 L1622.33323,170.998747 L1590.82288,170.998747 L1590.82288,150.636541 C1581.36972,165.379144 1568.24054,172.750335 1551.43493,172.750335 C1534.62932,172.750335 1520.59985,166.911768 1509.3461,155.234458 Z M1580.91962,136.623839 C1587.52182,130.201319 1590.82288,121.443468 1590.82288,110.350024 C1590.82288,99.2565798 1587.52182,90.53522 1580.91962,84.1856829 C1574.31742,77.8361458 1566.58996,74.6614249 1557.737,74.6614249 C1548.88405,74.6614249 1541.1941,77.7996548 1534.66692,84.0762087 C1528.13974,90.3527626 1524.8762,99.0376313 1524.8762,110.131075 C1524.8762,121.22452 1528.17725,129.98237 1534.77946,136.404891 C1541.38166,142.827411 1549.07161,146.038623 1557.84954,146.038623 C1566.62747,146.038623 1574.31742,142.900393 1580.91962,136.623839 Z" id="Combined-Shape" fill="#002272"></path>
                                        <path d="M1708.76164,172.750335 C1690.60558,172.750335 1675.82587,167.021241 1664.42207,155.562881 C1653.01826,144.104521 1647.31644,128.960737 1647.31644,110.131075 C1647.31644,91.3014137 1653.05577,76.2306121 1664.5346,64.9182184 C1676.01343,53.6058248 1690.86817,47.9497128 1709.09925,47.9497128 C1727.33034,47.9497128 1742.29761,53.4598606 1754.00151,64.4803215 C1765.70542,75.5007824 1771.55728,90.2066736 1771.55728,108.598436 C1771.55728,112.831461 1771.25719,116.772494 1770.65698,120.421653 L1679.7271,120.421653 C1680.47735,128.303837 1683.4783,134.653279 1688.73006,139.470169 C1693.98181,144.287059 1700.65894,146.695468 1708.76164,146.695468 C1719.7153,146.695468 1727.81788,142.316543 1733.06963,133.558561 L1767.28088,133.558561 C1763.67967,145.089904 1756.70245,154.504594 1746.349,161.802912 C1735.99554,169.101231 1723.46655,172.750335 1708.76164,172.750335 Z M1738.69648,100.497343 C1738.24633,92.4691929 1735.20786,86.0467689 1729.58098,81.2298787 C1723.95411,76.4129885 1717.16444,74.0045795 1709.21179,74.0045795 C1701.25914,74.0045795 1694.61952,76.4129885 1689.29274,81.2298787 C1683.96596,86.0467689 1680.77745,92.4691929 1679.7271,100.497343 L1738.69648,100.497343 Z" id="Combined-Shape" fill="#002272"></path>
                                        <path d="M1804.41808,155.234458 C1793.31438,143.411182 1787.76261,128.376872 1787.76261,110.131075 C1787.76261,91.8852792 1793.31438,76.9604418 1804.41808,65.3561153 C1815.52179,53.7517889 1829.62628,47.9497128 1846.73199,47.9497128 C1863.8377,47.9497128 1876.89186,54.8100292 1885.89486,68.530868 L1885.89486,49.7013004 L1917.40522,49.7013004 L1917.40522,170.998747 L1885.89486,170.998747 L1885.89486,150.636541 C1876.44171,165.379144 1863.31252,172.750335 1846.50692,172.750335 C1829.70131,172.750335 1815.67184,166.911768 1804.41808,155.234458 Z M1875.99161,136.623839 C1882.59381,130.201319 1885.89486,121.443468 1885.89486,110.350024 C1885.89486,99.2565798 1882.59381,90.53522 1875.99161,84.1856829 C1869.3894,77.8361458 1861.66194,74.6614249 1852.80899,74.6614249 C1843.95603,74.6614249 1836.26608,77.7996548 1829.7389,84.0762087 C1823.21173,90.3527626 1819.94819,99.0376313 1819.94819,110.131075 C1819.94819,121.22452 1823.24924,129.98237 1829.85144,136.404891 C1836.45364,142.827411 1844.14359,146.038623 1852.92152,146.038623 C1861.69945,146.038623 1869.3894,142.900393 1875.99161,136.623839 Z" id="Combined-Shape" fill="#002272"></path>
                                        <polygon id="Path" fill="#002272" points="1951.16632 170.998747 1951.16632 8.97688687 1982.90175 8.97688687 1982.90175 170.998747"></polygon>
                                        <path d="M2009.68555,85.170951 C2009.68555,74.6613724 2014.26201,65.8305394 2023.41506,58.6781873 C2032.56812,51.5258352 2044.72199,47.9497128 2059.87705,47.9497128 C2075.0321,47.9497128 2087.18598,51.4893441 2096.33903,58.5687131 C2105.49209,65.648082 2110.36864,75.2452269 2110.96884,87.3604356 L2078.55819,87.3604356 C2077.65789,77.1427897 2071.20583,72.0340434 2059.20182,72.0340434 C2053.19982,72.0340434 2048.54834,73.2017568 2045.24724,75.5372187 C2041.94614,77.8726807 2040.29561,81.0838926 2040.29561,85.170951 C2040.29561,89.2580093 2042.7714,92.4692213 2047.72305,94.8046832 C2052.6747,97.1401452 2058.67662,98.9646974 2065.72897,100.278395 C2072.78132,101.592092 2079.79606,103.234189 2086.77339,105.204735 C2093.75072,107.175281 2099.71512,110.678421 2104.66677,115.714261 C2109.61842,120.750101 2112.09421,127.427962 2112.09421,135.748045 C2112.09421,146.695523 2107.33019,155.599338 2097.80201,162.459757 C2088.27383,169.320177 2076.11996,172.750335 2061.34003,172.750335 C2046.5601,172.750335 2034.44373,169.356668 2024.99058,162.569232 C2015.53743,155.781795 2010.36078,146.038686 2009.46048,133.339612 L2041.87113,133.339612 C2043.07153,143.557258 2049.74866,148.666004 2061.90271,148.666004 C2067.75466,148.666004 2072.48117,147.388818 2076.08237,144.834406 C2079.68357,142.279995 2081.48415,138.922819 2081.48415,134.762777 C2081.48415,130.602736 2079.00836,127.318542 2074.05671,124.910097 C2069.10505,122.501651 2063.10314,120.640608 2056.05079,119.326911 C2048.99844,118.013213 2041.9837,116.407607 2035.00637,114.510045 C2028.02904,112.612482 2022.06464,109.218815 2017.11299,104.328941 C2012.16134,99.4390679 2009.68555,93.053135 2009.68555,85.170951 Z" id="Path" fill="#002272"></path>
                                    </g>
                                </g>
                            </g>
                        </g>
                    </g>
                </g>
            </g>
        </g>
    </g>
</svg>