<svg xmlns="http://www.w3.org/2000/svg" xmlns:xlink="http://www.w3.org/1999/xlink" width="840" height="253" viewBox="0 0 840 253">
  <defs>
    <polygon id="logo-za-footer-a" points="0 277.827 840 277.827 840 0 0 0"/>
    <polygon id="logo-za-footer-c" points="0 277.827 840 277.827 840 0 0 0"/>
    <polygon id="logo-za-footer-e" points="0 277.827 840 277.827 840 0 0 0"/>
  </defs>
  <g fill="none" fill-rule="evenodd" transform="translate(0 -25)">
    <path fill="#FF5F5F" fill-rule="nonzero" d="M130.221494,226.4568 C134.277493,226.4568 137.304493,225.4518 139.314493,223.4448 C141.321494,221.4378 142.323493,218.4048 142.323493,214.3518 C142.323493,206.3628 138.288493,202.3668 130.221494,202.3668 L124.959494,202.3668 L124.959494,226.4568 L130.221494,226.4568 Z M113.967494,193.5948 L130.980493,193.5948 C135.582493,193.5948 139.545493,194.4228 142.881494,196.0788 C146.214494,197.7378 148.767494,200.1258 150.540493,203.2428 C152.313493,206.3628 153.201493,210.0618 153.201493,214.3518 C153.201493,218.6778 152.322494,222.4098 150.570493,225.5478 C148.815494,228.6888 146.271494,231.0858 142.938493,232.7418 C139.605493,234.3978 135.618493,235.2258 130.980493,235.2258 L113.967494,235.2258 L113.967494,193.5948 Z"/>
    <polygon fill="#FF5F5F" fill-rule="nonzero" points="179.616 235.227 179.616 193.593 209.319 193.593 209.319 202.014 190.317 202.014 190.317 209.85 208.092 209.85 208.092 218.271 190.317 218.271 190.317 226.806 209.319 226.806 209.319 235.227"/>
    <path fill="#FF5F5F" fill-rule="nonzero" d="M243.305893,234.5253 C240.263893,233.7093 237.788894,232.5933 235.880894,231.1923 L239.330894,223.4163 C241.355894,224.7033 243.509894,225.6873 245.792894,226.3683 C248.069894,227.0523 250.361894,227.3913 252.662893,227.3913 C254.999894,227.3913 256.790894,227.0703 258.038893,226.4283 C259.286894,225.7833 259.913893,224.8773 259.913893,223.7103 C259.913893,222.6543 259.346894,221.7873 258.215894,221.1033 C257.084894,220.4253 254.960893,219.7503 251.843894,219.0873 C247.904894,218.3103 244.844894,217.3443 242.663894,216.1953 C240.479894,215.0463 238.949894,213.6903 238.070894,212.1303 C237.194894,210.5733 236.756894,208.6803 236.756894,206.4603 C236.756894,203.9253 237.476894,201.6333 238.919894,199.5873 C240.362894,197.5413 242.387894,195.9453 245.000894,194.7933 C247.613894,193.6443 250.592894,193.0683 253.946894,193.0683 C256.946894,193.0683 259.862894,193.4853 262.688894,194.3253 C265.514894,195.1623 267.725893,196.2633 269.324894,197.6283 L265.934893,205.4043 C264.101894,204.1173 262.172893,203.1363 260.144894,202.4553 C258.116894,201.7713 256.091893,201.4293 254.063894,201.4293 C252.074894,201.4293 250.478894,201.8103 249.269893,202.5693 C248.060894,203.3313 247.454894,204.3513 247.454894,205.6383 C247.454894,206.3403 247.670894,206.9253 248.099894,207.3933 C248.528893,207.8613 249.326894,208.3203 250.496893,208.7673 C251.666894,209.2143 253.421894,209.6943 255.758894,210.2013 C259.541894,211.0173 262.511893,212.0043 264.677894,213.1533 C266.840894,214.3053 268.370894,215.6493 269.267894,217.1883 C270.161894,218.7273 270.614893,220.5723 270.614893,222.7113 C270.614893,226.7673 269.033894,229.9563 265.874894,232.2723 C262.718894,234.5913 258.272894,235.7523 252.545894,235.7523 C249.425894,235.7523 246.347894,235.3413 243.305893,234.5253"/>
    <mask id="logo-za-footer-b" fill="#fff">
      <use xlink:href="#logo-za-footer-a"/>
    </mask>
    <polygon fill="#FF5F5F" fill-rule="nonzero" points="297.057 235.227 308.049 235.227 308.049 193.596 297.057 193.596" mask="url(#logo-za-footer-b)"/>
    <mask id="logo-za-footer-d" fill="#fff">
      <use xlink:href="#logo-za-footer-c"/>
    </mask>
    <path fill="#FF5F5F" fill-rule="nonzero" d="M372.918195,211.7205 L372.918195,232.5945 C370.698195,233.6115 368.211195,234.3915 365.463195,234.9345 C362.715195,235.4805 359.898195,235.7535 357.015195,235.7535 C352.491195,235.7535 348.564195,234.8955 345.231195,233.1795 C341.901195,231.4665 339.336195,229.0005 337.542195,225.7815 C335.748195,222.5655 334.854195,218.7585 334.854195,214.3515 C334.854195,210.0615 335.748195,206.3115 337.542195,203.0955 C339.336195,199.8825 341.868195,197.4075 345.144195,195.6675 C348.417195,193.9365 352.239195,193.0665 356.604195,193.0665 C359.607195,193.0665 362.442195,193.4565 365.112195,194.2365 C367.782195,195.0195 369.954195,196.0905 371.634195,197.4525 L368.184195,205.2315 C366.270195,203.9835 364.428195,203.0775 362.658195,202.5105 C360.882195,201.9465 358.980195,201.6615 356.955195,201.6615 C353.250195,201.6615 350.493195,202.7055 348.681195,204.7905 C346.869195,206.8785 345.963195,210.0615 345.963195,214.3515 C345.963195,218.7945 346.908195,222.0915 348.798195,224.2335 C350.688195,226.3785 353.604195,227.4495 357.540195,227.4495 C359.370195,227.4495 361.203195,227.2575 363.039195,226.8645 L363.039195,219.1485 L355.788195,219.1485 L355.788195,211.7205 L372.918195,211.7205 Z" mask="url(#logo-za-footer-d)"/>
    <mask id="logo-za-footer-f" fill="#fff">
      <use xlink:href="#logo-za-footer-e"/>
    </mask>
    <polygon fill="#FF5F5F" fill-rule="nonzero" points="426.444 193.593 436.794 193.593 436.794 235.227 428.667 235.227 409.779 211.602 409.779 235.227 399.546 235.227 399.546 193.593 407.559 193.593 426.444 217.101" mask="url(#logo-za-footer-f)"/>
    <g fill="#FFF" fill-rule="nonzero" transform="translate(0 25)">
      <path d="M715.760595,40.3271 C720.473595,32.5061 716.180595,25.1771 706.958595,25.3331 C694.730595,25.5401 685.862595,33.6881 681.383595,50.3861 C680.438595,53.8991 679.874595,59.3111 679.904595,65.1641 C707.309595,48.1871 713.939595,43.3511 715.760595,40.3271 M534.881595,183.5771 C522.035595,195.6491 518.471595,211.1411 523.385595,222.1091 C527.765595,231.8771 537.710595,234.9941 550.742595,227.5151 C561.134595,221.5511 571.475595,193.4741 579.944595,151.2821 C557.390595,165.7391 542.828595,176.1101 534.881595,183.5771 M577.067595,84.1901 C563.216595,100.3541 550.046595,107.8511 536.858595,101.6681 C527.429595,97.2491 522.131595,89.1161 520.913595,78.6701 C520.100595,71.6981 520.934595,64.8971 523.217595,54.2321 C523.415595,53.3081 523.610595,52.4111 523.907595,51.0521 C527.261595,35.8151 527.378595,30.9371 525.854595,29.7101 C524.447595,28.5761 523.511595,28.6631 519.749595,31.1591 C516.422595,33.3731 500.420595,47.2331 498.074595,49.1141 C485.273595,59.3891 472.859595,66.7331 458.075595,71.6441 C424.259595,82.8881 394.847595,72.3611 371.849595,40.9121 C368.456595,36.2741 369.089595,29.5991 373.265595,26.0081 C377.441595,22.4141 383.573595,23.2631 386.966595,27.9011 C404.921595,52.4531 425.930595,59.9741 452.000595,51.3071 C464.498595,47.1521 475.088595,40.8911 486.293595,31.8971 C487.781595,30.7001 504.824595,15.9401 509.333595,12.9431 C519.134595,6.4301 528.326595,5.5991 537.173595,12.7091 C543.809595,18.0431 546.434595,25.9061 546.203595,35.3621 C546.065595,41.1041 545.312595,45.3041 542.858595,56.4641 C542.567595,57.7871 542.381595,58.6481 542.192595,59.5211 C538.868595,75.0521 539.438595,79.9481 544.193595,82.1771 C547.190595,83.5781 553.874595,79.7741 562.688595,69.4871 C567.395595,63.9941 572.333595,57.1061 577.451595,49.0541 C582.278595,41.4641 586.574595,34.0151 591.857595,24.3671 C592.394595,23.3831 594.056595,20.3351 594.317595,19.8611 C595.172595,18.2981 595.754595,17.2481 596.246595,16.3811 C596.936595,15.1721 597.443595,14.3321 597.947595,13.6181 C598.751595,12.4811 599.405595,11.7131 600.734595,10.8131 C601.868595,10.0781 601.868595,10.0781 604.112595,9.3881 C607.328595,9.0761 607.328595,9.0761 611.354595,11.0411 C614.357595,14.0441 614.357595,14.0441 615.323595,16.6391 C615.803595,18.6071 615.803595,18.6071 615.866595,19.7861 C616.127595,27.1301 612.023595,71.9441 606.761595,109.8371 C607.364595,109.4681 607.970595,109.0991 608.579595,108.7271 C611.462595,106.9661 614.462595,105.1391 617.672595,103.1891 C635.060595,92.6261 649.367595,83.9171 661.145595,76.7051 C659.714595,64.7081 660.503595,52.0751 662.675595,43.9781 C669.395595,18.9371 685.175595,4.4411 706.202595,4.0871 C730.571595,3.6761 745.772595,29.6171 732.116595,52.2851 C728.471595,58.3301 717.269595,66.4241 694.337595,80.9261 C691.013595,83.0291 687.482595,85.2371 683.624595,87.6281 C687.323595,96.8921 693.752595,102.0401 704.078595,102.8531 C745.034595,106.0691 775.397595,82.2431 822.011595,5.3051 C824.963595,0.4361 830.918595,-0.8779 835.457595,2.3831 C840.000655,5.6471 841.397595,12.2531 838.451595,17.1221 C788.378595,99.9041 751.862595,127.8761 703.133595,124.0451 C685.610595,122.6681 673.505595,113.0051 666.761595,97.9781 C665.480595,98.7581 664.169595,99.5561 662.822595,100.3721 C657.014595,103.9031 633.311595,118.2551 627.452595,121.8101 C624.254595,123.7571 621.263595,125.5751 618.395595,127.3271 C612.833595,130.7231 607.559595,133.9631 602.561595,137.0591 C592.415595,196.7771 579.356595,235.3391 560.123595,246.3731 C537.716595,259.2311 515.411595,252.2381 505.925595,231.0791 C496.919595,210.9911 502.823595,185.3381 521.969595,167.3411 C532.739595,157.2191 552.530595,143.5541 584.948595,123.3011 C585.146595,122.0591 585.344595,120.8111 585.539595,119.5511 C588.404595,101.0741 590.825595,81.7211 592.793595,62.6141 C587.456595,70.9241 582.230595,78.1631 577.067595,84.1901"/>
      <path d="M388.018095,97.6157 C403.903095,104.9297 425.113095,92.9387 433.489095,73.3997 C440.455095,57.1457 431.173095,33.9347 416.911095,30.5507 C404.176095,27.5327 392.719095,31.8797 383.284095,41.7827 C379.327095,45.9347 375.991095,50.8607 373.669095,55.7657 C371.806095,59.7047 370.834095,63.1967 370.819095,64.8557 C370.822095,64.9337 370.822095,65.0147 370.822095,65.0957 L370.870095,68.9927 L370.495095,69.4607 C369.892095,82.5947 375.721095,91.9577 388.018095,97.6157 M103.162093,111.1517 C79.5040935,147.2327 49.9090935,174.6647 13.2700936,190.0157 C8.26909359,192.1157 2.62909358,189.3647 0.670093581,183.8747 C-1.28590642,178.3847 1.18609358,172.2377 6.18709359,170.1407 C38.9830935,156.3977 65.7130935,131.6177 87.3280935,98.6627 C98.7700935,81.2117 107.941093,62.8247 115.759093,43.3547 C118.195093,37.2917 119.524093,33.7187 122.683093,24.9827 C123.769093,21.9797 124.291093,20.5667 124.801093,19.3127 C125.203093,18.3347 125.560093,17.5457 125.968093,16.7987 C127.924093,13.2347 129.457093,11.4227 134.266093,11.2127 C138.262093,11.0357 140.863093,12.9857 142.708093,15.6137 C143.377093,16.5647 143.833093,17.4827 144.235093,18.4937 C144.676093,19.5947 145.045093,20.8277 145.426093,22.3397 C145.996093,24.5987 146.620093,27.6377 147.373093,31.6967 C147.970093,34.9337 148.615093,38.6207 149.545093,44.0867 C149.803093,45.5897 150.727093,51.0467 150.718093,50.9897 C151.198093,53.8157 151.567093,55.9787 151.930093,58.0817 C153.280093,65.8937 154.411093,72.0767 155.437093,77.1227 C156.571093,75.3197 157.825093,73.2857 159.259093,70.9397 C160.768093,68.4737 166.177093,59.5577 166.660093,58.7687 C167.170093,57.9287 167.650093,57.1397 168.115093,56.3807 C185.494093,27.9497 190.420093,21.0647 199.054093,20.6867 C206.047093,20.3807 210.094093,24.8087 214.828093,33.1337 C217.204093,37.3067 219.061093,41.2307 223.297093,50.6387 C226.759093,58.3277 228.499093,62.0477 230.164093,65.1077 C230.434093,64.7507 230.713093,64.3727 231.001093,63.9827 C233.896093,60.0287 236.575093,55.9217 242.803093,46.0577 C249.319093,35.7437 252.127093,31.4357 255.415093,26.9447 C261.511093,18.6227 265.486093,14.7017 271.537093,14.4377 C276.736093,14.2097 280.246093,17.0657 283.270093,21.5327 C284.860093,23.8757 286.360093,26.8127 288.100093,30.7577 C289.501093,33.9317 295.765093,49.5227 297.562093,53.6627 C304.630095,69.9497 310.918095,78.8027 316.003095,79.9637 C326.521095,82.3667 338.344095,76.3757 351.697095,60.4727 C353.251095,49.7807 360.205095,36.4007 369.760095,26.3747 C383.557095,11.8937 401.371095,5.1317 420.889095,9.7607 C447.919095,16.1717 463.198095,54.3677 451.111095,82.5557 C438.682095,111.5507 407.086095,129.4097 380.593095,117.2177 C367.015095,110.9687 357.712095,100.7357 353.524095,87.7637 C339.946095,99.4067 326.128095,103.9787 312.172095,100.7897 C298.735093,97.7207 289.690093,84.9887 280.000093,62.6597 C278.101093,58.2797 272.215093,43.6517 270.730093,40.1957 C270.700093,40.2377 270.667093,40.2827 270.637093,40.3247 C267.742093,44.2757 265.066093,48.3857 258.835093,58.2467 C252.319093,68.5607 249.514093,72.8687 246.223093,77.3627 C240.130093,85.6817 236.152093,89.6027 230.101093,89.8667 C223.108093,90.1757 219.061093,85.7447 214.327093,77.4197 C211.954093,73.2437 210.094093,69.3257 205.858093,59.9147 C202.465093,52.3757 200.725093,48.6557 199.090093,45.6287 C198.637093,46.2287 198.163093,46.8797 197.665093,47.5757 C194.230093,52.3757 190.141093,58.7717 184.312093,68.3027 C183.856093,69.0527 183.382093,69.8297 182.875093,70.6577 C182.410093,71.4227 176.986093,80.3627 175.456093,82.8647 C172.690093,87.3857 170.545093,90.8207 168.640093,93.7517 C160.936093,105.6077 158.719093,108.3767 152.578093,108.6467 C151.441093,108.6497 151.441093,108.6497 150.358093,108.4847 C144.841093,107.4257 142.861093,104.2097 140.725093,98.3567 C139.789093,95.7947 138.877093,92.4977 137.917093,88.3637 C136.405093,81.8447 134.845093,73.6067 132.817093,61.8707 C132.520093,60.1427 132.217093,58.3817 131.857093,56.2607 C123.913093,75.4277 114.628093,93.6707 103.162093,111.1517"/>
    </g>
  </g>
</svg>
